<svg xmlns="http://www.w3.org/2000/svg" viewBox="0 0 477.92 95.6"><defs><style>.cls-1{fill:#2684ff;}.cls-2{fill:#f8f9fa;}</style></defs><title>Asset 10</title><g id="Layer_2" data-name="Layer 2"><g id="Layer_1-2" data-name="Layer 1"><path class="cls-1" d="M114.92,22.4h-3.46V35.5H104.8v-34h13.3a11.75,11.75,0,0,1,4.49.82A10.47,10.47,0,0,1,126,4.49a9.59,9.59,0,0,1,2.18,3.31,11,11,0,0,1,.77,4.13A9.82,9.82,0,0,1,127,18.08a9.87,9.87,0,0,1-5.3,3.5L129,35.5H121.6Zm1.92-5.71a5.56,5.56,0,0,0,3.94-1.3A4.44,4.44,0,0,0,122.17,12a4.5,4.5,0,0,0-1.39-3.46,5.56,5.56,0,0,0-3.94-1.3h-5.38v9.46Z"/><path class="cls-1" d="M134.8,35.5v-34h21.31V7.71H141.42v7.78h13.3v5.9h-13.3v7.87h14.69V35.5Z"/><path class="cls-1" d="M162.73,35.5v-34h21.5V7.76H169.36v8.4H182.6v6.1H169.4V35.5Z"/><path class="cls-1" d="M189.71,35.5v-34h6.72v34Z"/><path class="cls-1" d="M226.28,35.5,210.83,11.36V35.5H204.2v-34h8.26L226.62,24V1.47h6.62v34Z"/><path class="cls-1" d="M241,35.5v-34h21.31V7.71H247.64v7.78h13.3v5.9h-13.3v7.87h14.69V35.5Z"/><path class="cls-1" d="M269,35.5v-34h12.19a19,19,0,0,1,6.72,1.15A15,15,0,0,1,293.17,6a15.43,15.43,0,0,1,3.5,5.35,19.22,19.22,0,0,1,1.27,7.2,19.22,19.22,0,0,1-1.27,7.2A15,15,0,0,1,293.15,31a15.48,15.48,0,0,1-5.33,3.31,19,19,0,0,1-6.72,1.15Zm11.9-6.14a12,12,0,0,0,3.94-.65,8.76,8.76,0,0,0,3.26-2,9.57,9.57,0,0,0,2.21-3.38,13,13,0,0,0,.82-4.82,13,13,0,0,0-.82-4.82,9.75,9.75,0,0,0-2.18-3.38,8.81,8.81,0,0,0-3.24-2,11.58,11.58,0,0,0-3.94-.67h-5.33V29.36Z"/><path class="cls-2" d="M122.09,45.58a18.61,18.61,0,0,1,6.35,1,13.58,13.58,0,0,1,4.66,2.76,11.78,11.78,0,0,1,2.9,4.18,13.57,13.57,0,0,1,1,5.24,11.18,11.18,0,0,1-2,6.62,10,10,0,0,1-5.11,3.86,10.09,10.09,0,0,1,3.35,1.45,11.74,11.74,0,0,1,4.59,5.93,12.44,12.44,0,0,1,.69,4.21,13.89,13.89,0,0,1-1.07,5.49,12.23,12.23,0,0,1-3,4.31,14.37,14.37,0,0,1-4.76,2.83,17.86,17.86,0,0,1-6.24,1H104.5V45.58ZM120.64,65.8a7.39,7.39,0,0,0,5.14-1.66,6.46,6.46,0,0,0,.07-8.94,7.56,7.56,0,0,0-5.28-1.62h-6.69V65.8Zm1,20.77a8,8,0,0,0,5.45-1.69A5.86,5.86,0,0,0,129,80.22a6.4,6.4,0,0,0-1.83-4.73,7.35,7.35,0,0,0-5.42-1.83h-7.87v12.9Z"/><path class="cls-2" d="M146.59,94.5V45.58h9.66V94.5Z"/><path class="cls-2" d="M188,54.62V94.5h-9.59V54.62H162.94v-9h40.5v9Z"/><path class="cls-2" d="M227.73,45.58a18.61,18.61,0,0,1,6.35,1,13.58,13.58,0,0,1,4.66,2.76,11.79,11.79,0,0,1,2.9,4.18,13.58,13.58,0,0,1,1,5.24,11.17,11.17,0,0,1-2,6.62,10,10,0,0,1-5.11,3.86,10.08,10.08,0,0,1,3.35,1.45,11.74,11.74,0,0,1,4.59,5.93,12.45,12.45,0,0,1,.69,4.21,13.88,13.88,0,0,1-1.07,5.49,12.22,12.22,0,0,1-3,4.31,14.37,14.37,0,0,1-4.76,2.83,17.86,17.86,0,0,1-6.24,1H210.13V45.58ZM226.28,65.8a7.39,7.39,0,0,0,5.14-1.66,6.46,6.46,0,0,0,.07-8.94,7.56,7.56,0,0,0-5.28-1.62h-6.69V65.8Zm1,20.77a8,8,0,0,0,5.45-1.69,5.87,5.87,0,0,0,1.93-4.66,6.4,6.4,0,0,0-1.83-4.73,7.35,7.35,0,0,0-5.42-1.83h-7.87v12.9Z"/><path class="cls-2" d="M270.51,95.6a22.5,22.5,0,0,1-7.35-1.17,16.38,16.38,0,0,1-5.93-3.52,16.92,16.92,0,0,1-4-5.8,19.91,19.91,0,0,1-1.48-7.94V45.58h9.52V76.49q0,4.83,2.48,7.31a9.14,9.14,0,0,0,6.76,2.48,9.23,9.23,0,0,0,6.83-2.48q2.48-2.48,2.48-7.31V45.58h9.52v31.6a19.94,19.94,0,0,1-1.48,7.94,17,17,0,0,1-4,5.8,16.35,16.35,0,0,1-6,3.52A22.81,22.81,0,0,1,270.51,95.6Z"/><path class="cls-2" d="M322.19,95.54a26.13,26.13,0,0,1-9.66-1.79,23.9,23.9,0,0,1-8-5.11,24.22,24.22,0,0,1-5.42-8,26.65,26.65,0,0,1-2-10.56,26.52,26.52,0,0,1,2-10.59,24,24,0,0,1,13.46-13.14A25.3,25.3,0,0,1,322,44.54,26.15,26.15,0,0,1,331,46a21.44,21.44,0,0,1,6.62,3.73A20.09,20.09,0,0,1,342,54.89a23,23,0,0,1,2.45,5.87l-9,2.83a14.66,14.66,0,0,0-1.38-3.52,11,11,0,0,0-2.59-3.17,13.51,13.51,0,0,0-4-2.28,16.34,16.34,0,0,0-11,.1,14.3,14.3,0,0,0-4.83,3,14.67,14.67,0,0,0-3.45,5.11A18.52,18.52,0,0,0,307,70.07,17.57,17.57,0,0,0,308.28,77a15.13,15.13,0,0,0,3.38,5,14.45,14.45,0,0,0,4.83,3.1,15.42,15.42,0,0,0,5.69,1.07,15,15,0,0,0,5.49-.93,13.57,13.57,0,0,0,4-2.38,13.08,13.08,0,0,0,2.69-3.21,14.76,14.76,0,0,0,1.52-3.49l8.9,2.69a22,22,0,0,1-2.38,5.76A20.81,20.81,0,0,1,338,90a23.32,23.32,0,0,1-6.69,4A24.42,24.42,0,0,1,322.19,95.54Z"/><path class="cls-2" d="M368.35,74.21l-6.07,6.69V94.5h-9.52V45.58h9.52V67.73l19.6-22.15h12.49L375,66.9,394.5,94.5H382.56Z"/><path class="cls-2" d="M400.92,94.5V45.58h30.64v9H410.44V65.73h19.11v8.49H410.44V85.53h21.11v9Z"/><path class="cls-2" d="M462.46,54.62V94.5h-9.59V54.62H437.41v-9h40.5v9Z"/><path class="cls-2" d="M0,0,16.34,94.5H68.55L86.8,0ZM58.46,79.5H27.19L17.41,15h52Z"/></g></g></svg>