<svg xmlns="http://www.w3.org/2000/svg" viewBox="0 0 123.93 123.93"><defs><style>.cls-1{fill:none;}.cls-2{fill:#2684ff;}.cls-3{fill:#253858;}</style></defs><title>icon</title><g id="Layer_2" data-name="Layer 2"><g id="Layer_1-2" data-name="Layer 1"><rect class="cls-1" width="123.93" height="123.93"/><path class="cls-2" d="M19.27,106.33H0L19,70A25,25,0,0,1,.13,44.88a28.73,28.73,0,0,1,2-10.76,25,25,0,0,1,5.69-8.63,27.27,27.27,0,0,1,8.89-5.76,30.64,30.64,0,0,1,11.7-2.13H63.07v88.73H45.68V72.16h-9ZM45.68,57.27V32.62h-14Q25,32.62,21.4,36a11.73,11.73,0,0,0-3.63,9,11.57,11.57,0,0,0,3.63,8.88Q25,57.27,31.66,57.27Z"/><path class="cls-3" d="M94.14,17.6a33.74,33.74,0,0,1,11.51,1.81,24.6,24.6,0,0,1,8.45,5A21.36,21.36,0,0,1,119.36,32a24.64,24.64,0,0,1,1.81,9.51,20.27,20.27,0,0,1-3.63,12,18.2,18.2,0,0,1-9.26,7,18.27,18.27,0,0,1,6.07,2.63,21.43,21.43,0,0,1,4.94,4.57,21.69,21.69,0,0,1,3.38,6.19,22.58,22.58,0,0,1,1.25,7.63A25.19,25.19,0,0,1,122,91.5a22.19,22.19,0,0,1-5.51,7.82,26.08,26.08,0,0,1-8.64,5.13,32.43,32.43,0,0,1-11.33,1.88H62.23V17.6ZM91.51,54.27q6,0,9.32-3a10.43,10.43,0,0,0,3.32-8.13A10.44,10.44,0,0,0,101,35.06q-3.19-2.94-9.57-2.94H79.25V54.27Zm1.75,37.67q6.38,0,9.89-3.07a10.64,10.64,0,0,0,3.5-8.45,11.61,11.61,0,0,0-3.32-8.57q-3.32-3.31-9.82-3.32H79.25v23.4Z"/></g></g></svg>